<?xml version="1.0" encoding="UTF-8" standalone="no"?>
<!-- Created with Inkscape (http://www.inkscape.org/) -->
<svg
   xmlns:dc="http://purl.org/dc/elements/1.1/"
   xmlns:cc="http://creativecommons.org/ns#"
   xmlns:rdf="http://www.w3.org/1999/02/22-rdf-syntax-ns#"
   xmlns:svg="http://www.w3.org/2000/svg"
   xmlns="http://www.w3.org/2000/svg"
   xmlns:xlink="http://www.w3.org/1999/xlink"
   xmlns:sodipodi="http://sodipodi.sourceforge.net/DTD/sodipodi-0.dtd"
   xmlns:inkscape="http://www.inkscape.org/namespaces/inkscape"
   width="419.97095"
   height="126.70601"
   id="svg2"
   sodipodi:version="0.32"
   inkscape:version="0.46"
   sodipodi:docname="hacklab.svg"
   inkscape:output_extension="org.inkscape.output.svg.inkscape"
   version="1.0">
  <defs
     id="defs4">
    <inkscape:perspective
       sodipodi:type="inkscape:persp3d"
       inkscape:vp_x="0 : 526.18109 : 1"
       inkscape:vp_y="0 : 1000 : 0"
       inkscape:vp_z="744.09448 : 526.18109 : 1"
       inkscape:persp3d-origin="372.04724 : 350.78739 : 1"
       id="perspective10" />
    <radialGradient
       r="55.412727"
       fy="63.768734"
       fx="1227.3593"
       cy="63.768734"
       cx="1227.3593"
       gradientTransform="matrix(-1.3717424,1.6032171,-0.7071561,-0.6050509,1832.7848,-1919.0977)"
       gradientUnits="userSpaceOnUse"
       id="radialGradient6644"
       xlink:href="#linearGradient8200"
       inkscape:collect="always" />
    <linearGradient
       y2="67.268402"
       x2="57.072311"
       y1="47.516582"
       x1="41.589245"
       gradientTransform="matrix(-0.645858,-0.7634575,-0.7634575,0.645858,163.64756,63.063438)"
       gradientUnits="userSpaceOnUse"
       id="linearGradient6641"
       xlink:href="#linearGradient8301"
       inkscape:collect="always" />
    <linearGradient
       y2="65.985397"
       x2="56.435417"
       y1="57.609703"
       x1="49.242207"
       gradientTransform="matrix(1.5744326,-0.7944615,1.836614,0.6101823,-145.59959,70.562821)"
       gradientUnits="userSpaceOnUse"
       id="linearGradient6638"
       xlink:href="#linearGradient8301"
       inkscape:collect="always" />
    <linearGradient
       y2="65.985397"
       x2="56.435417"
       y1="57.609703"
       x1="49.242207"
       gradientTransform="matrix(1.6236334,0.688347,0.7209588,1.7960211,-80.148323,-87.430189)"
       gradientUnits="userSpaceOnUse"
       id="linearGradient6635"
       xlink:href="#linearGradient8301"
       inkscape:collect="always" />
    <linearGradient
       y2="67.268402"
       x2="57.072311"
       y1="47.516582"
       x1="41.589245"
       gradientTransform="matrix(0.165397,-0.986227,-0.986227,-0.165397,125.38608,143.75295)"
       gradientUnits="userSpaceOnUse"
       id="linearGradient6633"
       xlink:href="#linearGradient8301"
       inkscape:collect="always" />
    <radialGradient
       r="55.412727"
       fy="63.768734"
       fx="1227.3593"
       cy="63.768734"
       cx="1227.3593"
       gradientTransform="matrix(-2.1099429,-1.1093788e-2,4.8894948e-3,-0.9306623,2716.7054,136.98616)"
       gradientUnits="userSpaceOnUse"
       id="radialGradient6631"
       xlink:href="#linearGradient8200"
       inkscape:collect="always" />
    <linearGradient
       y2="67.268402"
       x2="57.072311"
       y1="47.516582"
       x1="41.589245"
       gradientTransform="matrix(0.165397,-0.986227,-0.986227,-0.165397,125.38608,143.75295)"
       gradientUnits="userSpaceOnUse"
       id="linearGradient8325"
       xlink:href="#linearGradient8301"
       inkscape:collect="always" />
    <linearGradient
       y2="65.985397"
       x2="56.435417"
       y1="57.609703"
       x1="49.242207"
       gradientTransform="matrix(1.6236334,0.688347,0.7209588,1.7960211,-80.148323,-87.430189)"
       gradientUnits="userSpaceOnUse"
       id="linearGradient8323"
       xlink:href="#linearGradient8301"
       inkscape:collect="always" />
    <radialGradient
       gradientUnits="userSpaceOnUse"
       gradientTransform="matrix(-2.1099429,-1.1093788e-2,4.8894948e-3,-0.9306623,2716.7054,136.98616)"
       r="55.412727"
       fy="63.768734"
       fx="1227.3593"
       cy="63.768734"
       cx="1227.3593"
       id="radialGradient8214"
       xlink:href="#linearGradient8200"
       inkscape:collect="always" />
    <inkscape:perspective
       sodipodi:type="inkscape:persp3d"
       inkscape:vp_x="-50 : 600 : 1"
       inkscape:vp_y="0 : 1000 : 0"
       inkscape:vp_z="700 : 600 : 1"
       inkscape:persp3d-origin="300 : 400 : 1"
       id="perspective14" />
    <filter
       y="0"
       x="0"
       filterUnits="userSpaceOnUse"
       id="ShadowBlur">
      <feGaussianBlur
         id="feGaussianBlur6"
         stdDeviation="2"
         in="SourceGraphic" />
    </filter>
    <clipPath
       id="clipoutline2"
       clipPathUnits="userSpaceOnUse">
      <path
         d="M 55.8,12 L 56.56,12.16 C 65.4,9.22 85.24,20.8 80.82,31.12 C 79.7,32.74 79.89,35.62 81.24,37.43 L 56.43,62.25 C 55.04,60.86 51.95,60.89 50.53,62.25 L 9.5,101.63 C 5.76,105.22 8.7,108.27 10.28,109.88 L 17.64,117.24 C 19.25,118.84 23.5,121 26.52,117.8 L 65.24,76.99 C 66.59,75.57 66.6,72.52 65.24,71.12 C 65.24,71.12 65.25,71.1 65.24,71.1 L 90.15,46.2 C 92.78,48.57 95.263827,48.774854 97.62,48.13 C 102.17057,46.884568 104.70725,51.336643 107.43,54.59 L 106.2,55.8 C 104.38,57.64 104.55,60.74 106.59,62.78 C 108.63,64.82 111.74,64.99 113.56,63.17 L 121.7,55.04 C 123.52,53.2 123.35,50.1 121.3,48.07 C 119.46,46.22 116.79,45.98 114.93,47.3 C 109.35,41.04 112.28,40.1 104.92,31.95 L 91.13,17.86 C 81.2,8.12 68.3,8.13 55.8,12 z"
         id="outline2" />
    </clipPath>
    <clipPath
       id="clipoutline1"
       clipPathUnits="userSpaceOnUse">
      <path
         d="M 22.42,17.2 L 35.38,30.15 L 32.88,38.93 L 24.1,41.43 L 11.14,28.47 L 5.28,34.33 L 20.17,55.79 L 37.73,52.45 L 99.36,118.07 C 108.8,127.58 121.53,113.32 112.7,105.2 L 46.85,42.92 L 50.86,25.16 L 28.72,10.89 L 22.42,17.2 z M 103.48,109.17 C 105.16,107.49 107.88,107.49 109.56,109.17 C 111.24,110.85 111.24,113.57 109.56,115.25 C 107.88,116.92 105.16,116.92 103.48,115.25 C 101.8,113.57 101.8,110.85 103.48,109.17 z"
         id="outline1" />
    </clipPath>
    <linearGradient
       gradientUnits="userSpaceOnUse"
       gradientTransform="translate(-0.30267,-3.20138)"
       y2="86.68"
       x2="84.300003"
       y1="66.199997"
       x1="73.879997"
       id="lgdg"
       xlink:href="#BlackTransparent" />
    <linearGradient
       gradientTransform="matrix(0.26,0,0,0.26,-106.57,101.57)"
       gradientUnits="userSpaceOnUse"
       y2="-241.2"
       x2="655.41998"
       y1="-137.5"
       x1="550.96002"
       id="lg55"
       xlink:href="#WhiteTransparent" />
    <linearGradient
       gradientTransform="matrix(0.2,0,0,0.2,-80.94,88.3)"
       gradientUnits="userSpaceOnUse"
       y2="-186.25999"
       x2="607.65997"
       y1="-252.60001"
       x1="646.23999"
       id="lg51"
       xlink:href="#WhiteTransparent" />
    <linearGradient
       gradientUnits="userSpaceOnUse"
       y2="6037.5259"
       x2="2375.4978"
       y1="6145.3076"
       x1="2482.957"
       id="lg19"
       xlink:href="#BlackTransparent" />
    <linearGradient
       spreadMethod="pad"
       gradientTransform="matrix(7.75e-2,7.75e-2,-0.36,0.36,78.84,-44.8)"
       gradientUnits="userSpaceOnUse"
       y2="124"
       x2="626.09998"
       y1="124"
       x1="577.03003"
       id="lg16"
       xlink:href="#WhiteTransparent" />
    <linearGradient
       gradientTransform="matrix(0.3,0.3,-9e-2,9e-2,78.84,-44.8)"
       gradientUnits="userSpaceOnUse"
       y2="368.26999"
       x2="146.14999"
       y1="288.57001"
       x1="146.14999"
       id="lg12"
       xlink:href="#WhiteTransparent" />
    <linearGradient
       gradientTransform="matrix(0.33,0.33,-9.44e-2,9.44e-2,9.03,-48.1)"
       gradientUnits="userSpaceOnUse"
       y2="-1.72"
       x2="258.95999"
       y1="62.740002"
       x1="258.95999"
       id="lg09"
       xlink:href="#WhiteTransparent" />
    <linearGradient
       spreadMethod="pad"
       gradientTransform="matrix(9.98e-2,9.98e-2,-0.28,0.28,78.84,-44.8)"
       gradientUnits="userSpaceOnUse"
       y2="286.56"
       x2="419.88"
       y1="286.56"
       x1="543.09998"
       id="lg05"
       xlink:href="#BlackTransparent" />
    <linearGradient
       gradientTransform="matrix(8.07e-2,7.75e-2,-0.35,0.36,77.14,-45.89)"
       gradientUnits="userSpaceOnUse"
       y2="254.83"
       x2="615.59003"
       y1="254.36"
       x1="512.70001"
       id="lg02"
       xlink:href="#WhiteTransparent" />
    <linearGradient
       gradientTransform="matrix(0.1,0.1,-0.22,0.2,75.6,-33.53)"
       gradientUnits="userSpaceOnUse"
       y2="118.3"
       x2="638.29999"
       y1="69.989998"
       x1="637.03003"
       id="lg1999"
       xlink:href="#WhiteTransparent" />
    <linearGradient
       id="BlackTransparent">
      <stop
         id="stop11"
         offset="0"
         style="stop-color:red;stop-opacity:1" />
      <stop
         id="stop13"
         offset="1"
         style="stop-color:black;stop-opacity:0" />
    </linearGradient>
    <linearGradient
       id="WhiteTransparent">
      <stop
         id="stop6"
         offset="0"
         style="stop-color:white;stop-opacity:1" />
      <stop
         id="stop8"
         offset="1"
         style="stop-color:white;stop-opacity:0" />
    </linearGradient>
    <inkscape:perspective
       id="perspective79"
       inkscape:persp3d-origin="64 : 42.666667 : 1"
       inkscape:vp_z="128 : 64 : 1"
       inkscape:vp_y="0 : 1000 : 0"
       inkscape:vp_x="0 : 64 : 1"
       sodipodi:type="inkscape:persp3d" />
    <linearGradient
       id="linearGradient8200">
      <stop
         id="stop8202"
         offset="0"
         style="stop-color:#00c0c0;stop-opacity:0.75294119;" />
      <stop
         id="stop8204"
         offset="1"
         style="stop-color:#80f5f5;stop-opacity:0.3019608;" />
    </linearGradient>
    <linearGradient
       id="linearGradient8301"
       inkscape:collect="always">
      <stop
         id="stop8303"
         offset="0"
         style="stop-color:#ffffff;stop-opacity:1;" />
      <stop
         id="stop8305"
         offset="1"
         style="stop-color:#ffffff;stop-opacity:0" />
    </linearGradient>
    <radialGradient
       inkscape:collect="always"
       xlink:href="#linearGradient8200"
       id="radialGradient3783"
       gradientUnits="userSpaceOnUse"
       gradientTransform="matrix(-1.3717424,1.6032171,-0.7071561,-0.6050509,1832.7848,-1919.0977)"
       cx="1227.3593"
       cy="63.768734"
       fx="1227.3593"
       fy="63.768734"
       r="55.412727" />
    <linearGradient
       inkscape:collect="always"
       xlink:href="#linearGradient8301"
       id="linearGradient3785"
       gradientUnits="userSpaceOnUse"
       gradientTransform="matrix(-0.645858,-0.7634575,-0.7634575,0.645858,163.64756,63.063438)"
       x1="41.589245"
       y1="47.516582"
       x2="57.072311"
       y2="67.268402" />
    <linearGradient
       inkscape:collect="always"
       xlink:href="#linearGradient8301"
       id="linearGradient3787"
       gradientUnits="userSpaceOnUse"
       gradientTransform="matrix(1.5744326,-0.7944615,1.836614,0.6101823,-145.59959,70.562821)"
       x1="49.242207"
       y1="57.609703"
       x2="56.435417"
       y2="65.985397" />
  </defs>
  <sodipodi:namedview
     id="base"
     pagecolor="#ffffff"
     bordercolor="#666666"
     borderopacity="1.0"
     inkscape:pageopacity="0.0"
     inkscape:pageshadow="2"
     inkscape:zoom="1"
     inkscape:cx="-105.35717"
     inkscape:cy="20.780095"
     inkscape:document-units="px"
     inkscape:current-layer="layer1"
     showgrid="false"
     inkscape:window-width="1280"
     inkscape:window-height="751"
     inkscape:window-x="0"
     inkscape:window-y="25" />
  <metadata
     id="metadata7">
    <rdf:RDF>
      <cc:Work
         rdf:about="">
        <dc:format>image/svg+xml</dc:format>
        <dc:type
           rdf:resource="http://purl.org/dc/dcmitype/StillImage" />
      </cc:Work>
    </rdf:RDF>
  </metadata>
  <g
     inkscape:label="Camada 1"
     inkscape:groupmode="layer"
     id="layer1"
     transform="translate(-222.35473,-137.17327)">
    <g
       id="g3758">
      <g
         transform="matrix(0.9999975,0,0,0.9999975,217.99306,-155.35392)"
         id="g3217">
        <g
           id="g3211">
          <text
             sodipodi:linespacing="125%"
             id="text2383"
             y="375.24747"
             x="69.603561"
             style="font-size:115.36895752px;font-style:normal;font-variant:normal;font-weight:normal;font-stretch:normal;text-align:start;line-height:125%;writing-mode:lr-tb;text-anchor:start;fill:#00af4a;fill-opacity:1;stroke:none;stroke-width:1px;stroke-linecap:butt;stroke-linejoin:miter;stroke-opacity:1;font-family:Prototype;-inkscape-font-specification:Prototype"
             xml:space="preserve"><tspan
               y="375.24747"
               x="69.603561"
               id="tspan2385"
               sodipodi:role="line">Hack</tspan></text>
          <text
             sodipodi:linespacing="125%"
             id="text2407"
             y="375.34219"
             x="324.31805"
             style="font-size:95.55728912px;font-style:normal;font-variant:normal;font-weight:normal;font-stretch:normal;text-align:start;line-height:125%;writing-mode:lr-tb;text-anchor:start;fill:#4f4f4f;fill-opacity:1;stroke:none;stroke-width:1px;stroke-linecap:butt;stroke-linejoin:miter;stroke-opacity:1;font-family:REZ;-inkscape-font-specification:REZ"
             xml:space="preserve"><tspan
               y="375.34219"
               x="324.31805"
               id="tspan2409"
               sodipodi:role="line">Lab</tspan></text>
        </g>
        <text
           sodipodi:linespacing="125%"
           id="text3181"
           y="410.41534"
           x="72.543709"
           style="font-size:43.65790939px;font-style:normal;font-variant:normal;font-weight:normal;font-stretch:normal;text-align:start;line-height:125%;writing-mode:lr-tb;text-anchor:start;fill:#4f4f4f;fill-opacity:1;stroke:none;stroke-width:1px;stroke-linecap:butt;stroke-linejoin:miter;stroke-opacity:1;font-family:Prototype;-inkscape-font-specification:Prototype"
           xml:space="preserve"><tspan
             y="410.41534"
             x="72.543709"
             id="tspan3183"
             sodipodi:role="line">hacking is passion</tspan></text>
      </g>
      <g
         transform="matrix(1.0051466,0,0,1.0051466,187.18883,135.8096)"
         id="g3737">
        <g
           id="layer3"
           inkscape:label="wyz" />
        <path
           style="opacity:0.25;fill:none;fill-opacity:1;fill-rule:nonzero;stroke:#000000;stroke-width:8;stroke-linecap:round;stroke-linejoin:round;marker:none;marker-start:none;marker-mid:none;marker-end:none;stroke-miterlimit:4;stroke-dasharray:none;stroke-dashoffset:0;stroke-opacity:1;visibility:visible;display:inline;overflow:visible;enable-background:accumulate"
           d="M 38.985846,5.6906903 L 91.38142,5.3566932 C 84.873723,11.94789 84.907141,17.191695 84.957215,25.046777 L 85.458209,103.64014 C 85.541708,116.73904 72.484565,123.37198 65.935119,123.41373 C 59.385672,123.45548 46.245029,116.98953 46.16153,103.89064 L 45.660533,25.297275 C 45.610465,17.442187 45.577042,12.198388 38.985846,5.6906903 z"
           id="path8208"
           sodipodi:nodetypes="cccccccc" />
        <g
           id="layer2"
           transform="matrix(1.264606,-1.4938307,1.4938307,1.264606,-16.239868,63.736398)" />
        <path
           sodipodi:nodetypes="cccccccc"
           id="path8210"
           d="M 38.985846,5.6906903 L 91.38142,5.3566932 C 84.873723,11.94789 84.907141,17.191695 84.957215,25.046777 L 85.458209,103.64014 C 85.541708,116.73904 72.484565,123.37198 65.935119,123.41373 C 59.385672,123.45548 46.245029,116.98953 46.16153,103.89064 L 45.660533,25.297275 C 45.610465,17.442187 45.577042,12.198388 38.985846,5.6906903 z"
           style="fill:#ffffff;fill-opacity:1;fill-rule:nonzero;stroke:none;stroke-width:5.87169695;stroke-linecap:round;stroke-linejoin:round;marker:none;marker-start:none;marker-mid:none;marker-end:none;stroke-miterlimit:4;stroke-dasharray:none;stroke-dashoffset:0;stroke-opacity:1;visibility:visible;display:inline;overflow:visible;enable-background:accumulate" />
        <g
           style="fill:#00ff00;fill-opacity:1;stroke:none"
           id="g3285"
           transform="matrix(2.1831489,-1.3916427e-2,1.3916427e-2,2.1831489,-0.3525882,-0.6082594)">
          <path
             sodipodi:nodetypes="cccccc"
             id="path3287"
             d="M 21.213709,20.485403 C 29.311097,20.462236 30.12478,20.481397 38.76791,20.254288 L 39,48 C 39,54 33,57 30,57 C 27,57 21,54 21,48 C 20.867273,36.102747 21.075829,33.267676 21.213709,20.485403 z"
             style="fill:#00ff00;fill-opacity:1;fill-rule:nonzero;stroke:none;stroke-width:3;stroke-linecap:round;stroke-linejoin:round;marker:none;marker-start:none;marker-mid:none;marker-end:none;stroke-miterlimit:4;stroke-dasharray:none;stroke-dashoffset:0;stroke-opacity:1;visibility:visible;display:inline;overflow:visible;enable-background:accumulate" />
          <path
             id="path3289"
             d="M 38.688421,15.134044 L 31.178953,14.945531"
             style="fill:#00ff00;fill-opacity:1;fill-rule:evenodd;stroke:none;stroke-width:2.9706378;stroke-linecap:round;stroke-linejoin:miter;stroke-miterlimit:4;stroke-dasharray:none;stroke-opacity:1" />
          <path
             style="fill:#00ff00;fill-opacity:1;fill-rule:evenodd;stroke:none;stroke-width:2.9706378;stroke-linecap:round;stroke-linejoin:miter;stroke-miterlimit:4;stroke-dasharray:none;stroke-opacity:1"
             d="M 38.52927,24.205662 L 31.019802,24.017149"
             id="path3291" />
          <path
             id="path3293"
             d="M 38.52927,33.118129 L 31.019802,32.929616"
             style="fill:#00ff00;fill-opacity:1;fill-rule:evenodd;stroke:none;stroke-width:2.9706378;stroke-linecap:round;stroke-linejoin:miter;stroke-miterlimit:4;stroke-dasharray:none;stroke-opacity:1" />
          <path
             style="fill:#00ff00;fill-opacity:1;fill-rule:evenodd;stroke:none;stroke-width:2.9706378;stroke-linecap:round;stroke-linejoin:miter;stroke-miterlimit:4;stroke-dasharray:none;stroke-opacity:1"
             d="M 38.52927,42.030596 L 31.019802,41.842083"
             id="path3295" />
        </g>
        <path
           style="opacity:0.5;fill:#000000;fill-opacity:1;fill-rule:nonzero;stroke:none;stroke-width:4;stroke-linecap:round;stroke-linejoin:round;marker:none;stroke-miterlimit:4;stroke-dasharray:none;stroke-dashoffset:0;stroke-opacity:1;visibility:visible;display:inline;overflow:visible;enable-background:accumulate"
           d="M 37.412254,4.4452737 C 36.773896,5.2441542 36.840909,6.3958792 37.567615,7.1153268 C 40.673299,10.181669 42.08378,12.729869 42.832299,15.502789 C 43.580818,18.275708 43.643614,21.372841 43.668648,25.300386 L 44.147697,103.9091 C 44.193695,111.1252 47.920932,116.61138 52.392537,120.14215 C 56.864142,123.67292 62.014723,125.42605 65.956104,125.40092 C 69.897484,125.3758 75.004173,123.56709 79.430397,119.9796 C 83.856622,116.39212 87.497581,110.85266 87.451584,103.63656 L 86.972534,25.027841 C 86.947495,21.100304 86.931492,18.020171 87.644606,15.237934 C 88.357719,12.455698 89.749609,9.8649897 92.815948,6.7593077 C 93.386556,6.1806938 93.552954,5.3208591 93.233015,4.5738442 C 92.913063,3.8268445 92.170387,3.3411529 91.357863,3.3549267 L 38.990583,3.6932642 C 38.376971,3.6885648 37.795163,3.9657688 37.412254,4.4452737 z M 43.113046,7.6744737 L 87.257398,7.3764333 C 85.617698,9.6582145 84.381659,11.92408 83.791207,14.227755 C 82.90662,17.678994 82.937876,21.145241 82.962911,25.072787 L 82.98565,29.882493 L 67.971233,29.578056 C 67.284654,29.554405 66.633982,29.884745 66.247905,30.452981 C 65.821348,31.063583 65.764265,31.843744 66.107964,32.504549 C 66.451662,33.165354 67.139211,33.597328 67.884051,33.598659 L 83.006744,33.871925 L 83.124184,49.693868 L 67.733577,49.398519 C 67.058594,49.376495 66.41807,49.696573 66.030441,50.249593 C 65.603884,50.860195 65.546801,51.640357 65.8905,52.301162 C 66.234198,52.961966 66.921747,53.393941 67.666587,53.395272 L 83.145279,53.683301 L 83.253631,69.129053 L 67.863024,68.833705 C 67.176446,68.810053 66.525774,69.140394 66.139696,69.70863 C 65.71314,70.319231 65.656057,71.099393 65.999755,71.760198 C 66.343454,72.421003 67.031002,72.852977 67.775842,72.854308 L 83.254534,73.142337 L 83.366547,88.632132 L 67.996131,88.312932 C 67.383732,88.283973 66.791878,88.537461 66.390291,89.000708 C 65.874847,89.59628 65.74936,90.440803 66.0815,91.155001 C 66.413638,91.869197 67.141559,92.320086 67.92914,92.309685 L 83.407832,92.597714 L 83.462151,103.65765 C 83.499653,109.54045 80.652425,113.86913 76.933595,116.88327 C 73.214766,119.89741 68.543076,121.39487 65.935009,121.41149 C 63.326937,121.42812 58.638565,119.97493 54.881611,117.00844 C 51.124656,114.04195 48.194822,109.74695 48.157321,103.86416 L 47.65808,25.279291 C 47.633046,21.351746 47.622018,17.912057 46.693511,14.47238 C 46.073921,12.177102 44.780839,9.9344861 43.113046,7.6744737 z"
           id="rect3162" />
        <path
           style="fill:url(#radialGradient3783);fill-opacity:1;fill-rule:nonzero;stroke:none;stroke-width:5.87169695;stroke-linecap:round;stroke-linejoin:round;marker:none;marker-start:none;marker-mid:none;marker-end:none;stroke-miterlimit:4;stroke-dasharray:none;stroke-dashoffset:0;stroke-opacity:1;visibility:visible;display:inline;overflow:visible;enable-background:accumulate"
           d="M 39.21483,5.8845116 L 91.61039,5.5505291 C 85.10269,12.141733 85.13609,17.385561 85.18618,25.240621 L 85.68718,103.83398 C 85.77067,116.93288 72.71352,123.56584 66.16406,123.6076 C 59.61461,123.64935 46.47402,117.18334 46.39052,104.08445 L 45.88952,25.491088 C 45.83943,17.636029 45.80603,12.392201 39.21483,5.8845116 z"
           id="path8156"
           sodipodi:nodetypes="cccccccc" />
        <path
           style="fill:url(#linearGradient3785);fill-opacity:1;fill-rule:evenodd;stroke:none;stroke-width:1px;stroke-linecap:butt;stroke-linejoin:miter;stroke-opacity:1"
           d="M 88.031094,7.4661958 C 86.391491,9.0130182 83.097077,12.511247 83.247896,17.697671 L 83.239503,105.26453 C 82.961383,111.0898 79.602894,113.69778 75.630619,115.94826 C 77.951553,112.62519 78.297506,106.97449 78.283953,100.89186 L 79.07371,11.441793 C 79.044564,7.6028487 84.356224,7.7139898 88.031094,7.4661958 z"
           id="path8291"
           sodipodi:nodetypes="ccccccc" />
        <path
           id="path8321"
           d="M 43.614484,7.9814922 C 45.782368,11.761614 47.22696,14.07881 47.829532,18.893536 L 48.354264,105.54019 C 48.934886,111.35598 53.835093,119.15932 63.961824,120.78434 C 58.399988,117.56884 60.170625,110.46775 60.299656,104.38064 L 59.934094,16.473537 C 59.748696,10.003236 53.232483,7.4051549 43.614484,7.9814922 z"
           style="fill:url(#linearGradient3787);fill-opacity:1;fill-rule:evenodd;stroke:none;stroke-width:1px;stroke-linecap:butt;stroke-linejoin:miter;stroke-opacity:1"
           sodipodi:nodetypes="ccccccc" />
      </g>
    </g>
  </g>
</svg>
